<svg width="21" height="18" viewBox="0 0 21 18" fill="none" xmlns="http://www.w3.org/2000/svg">
<path fill-rule="evenodd" clip-rule="evenodd" d="M3.60003 5.70003C3.76571 5.47912 4.07912 5.43434 4.30003 5.60003L9.70003 9.65003C9.87781 9.78336 10.1223 9.78336 10.3 9.65003L15.7 5.60003C15.9209 5.43434 16.2343 5.47912 16.4 5.70003C16.5657 5.92094 16.5209 6.23434 16.3 6.40003L10.9 10.45C10.3667 10.85 9.63336 10.85 9.10003 10.45L3.70003 6.40003C3.47912 6.23434 3.43434 5.92094 3.60003 5.70003Z" fill="#39425D"/>
<path fill-rule="evenodd" clip-rule="evenodd" d="M16 1H5C2.79086 1 1 2.79086 1 5V13C1 15.2091 2.79086 17 5 17H16C18.2091 17 20 15.2091 20 13V5C20 2.79086 18.2091 1 16 1ZM5 0C2.23858 0 0 2.23858 0 5V13C0 15.7614 2.23858 18 5 18H16C18.7614 18 21 15.7614 21 13V5C21 2.23858 18.7614 0 16 0H5Z" fill="#39425D"/>
</svg>
